<svg width="629" height="399" viewBox="0 0 629 399" fill="none" xmlns="http://www.w3.org/2000/svg">
<path d="M135.459 24.0216L25.0822 126.736L1 149.723L64.4165 175.539L80.5808 182.125L304.582 273.327" stroke="#C7C7C7" stroke-linejoin="round"/>
<path d="M409.139 176.743L374.931 162.44L363.401 173.24L295.478 236.949L265.977 224.907L247.259 217.281L214.365 203.908L105.01 159.338L60.8225 141.331L171.017 38.6352" stroke="#C7C7C7" stroke-linejoin="round"/>
<path d="M135.459 24.0217L159.487 1.03409L280.08 50.7128L254.63 73.0253L171.017 38.6352" stroke="#C7C7C7" stroke-linejoin="round"/>
<path d="M628.196 249.044L468.98 397.533L466.28 341.122L602.819 214.91L626.007 193.509L628.196 249.044Z" stroke="#C7C7C7" stroke-linejoin="round"/>
<path d="M334.702 161.382L265.976 224.907L247.258 217.281V182.709L331.217 104.496L334.702 161.382Z" stroke="#C7C7C7" stroke-linejoin="round"/>
<path d="M626.007 193.509L602.819 214.91L466.28 341.122L430.722 326.399L349.116 292.557V292.52L346.708 291.535L370.772 268.566L373.655 269.77L455.37 303.412L523.931 239.612L566.385 200.114L331.219 104.496L247.26 182.709L212.833 168.57L255.688 128.67L282.781 103.475L321.44 67.4791L355.611 81.7824L626.007 193.509Z" stroke="#C7C7C7" stroke-linejoin="round"/>
<path d="M430.721 326.399L430.465 326.618L349.115 292.557L430.721 326.399Z" stroke="#C7C7C7" stroke-linejoin="round"/>
<path d="M255.687 128.67L254.629 73.0254" stroke="#C7C7C7" stroke-linejoin="round"/>
<path d="M282.78 103.475L280.08 50.7127" stroke="#C7C7C7" stroke-linejoin="round"/>
<path d="M173.936 95.0459L105.01 159.338L60.8225 141.331L171.017 38.6352L173.936 95.0459Z" stroke="#C7C7C7" stroke-linejoin="round"/>
<path d="M255.688 128.67L173.937 95.0459L171.018 38.6352L254.63 73.0435L255.688 128.67Z" stroke="#C7C7C7" stroke-linejoin="round"/>
<path d="M307.537 331.106L4.17403 206.28L1.0178 149.724L64.416 175.539L80.5803 182.125L304.581 273.327L307.537 331.106Z" stroke="#C7C7C7" stroke-linejoin="round"/>
<path d="M412.641 233.592L373.653 269.77L370.77 268.566L346.706 291.535L346.852 294.636L307.536 331.106L304.581 273.327L329.137 250.65L397.607 187.379L409.138 176.743L410.123 192.561L412.641 233.592Z" stroke="#C7C7C7" stroke-linejoin="round"/>
<path d="M566.385 200.114L523.931 239.612L410.124 192.561L409.139 176.743L374.931 162.44L363.401 173.24L334.703 161.382L331.218 104.496L566.385 200.114Z" stroke="#C7C7C7" stroke-linejoin="round"/>
<path d="M468.98 397.533L349.08 347.982L346.854 294.636L346.708 291.535L349.116 292.52V292.557L430.467 326.618L466.28 341.122L468.98 397.533Z" stroke="#C7C7C7" stroke-linejoin="round"/>
<path d="M247.26 182.709V217.281L214.365 203.909L212.833 168.57L247.26 182.709Z" stroke="#C7C7C7" stroke-linejoin="round"/>
<path d="M466.278 341.122L430.465 326.618L430.721 326.399L466.278 341.122Z" stroke="#C7C7C7" stroke-linejoin="round"/>
</svg>
