<svg width="101" height="82" viewBox="0 0 101 82" fill="none" xmlns="http://www.w3.org/2000/svg">
<path d="M37.4789 41.7397L37.4776 41.7394C36.5324 41.5336 35.5725 41.3624 34.6001 41.2291C35.544 41.1004 36.4768 40.9344 37.3985 40.7321C51.0422 37.7538 61.8077 27.0295 64.807 13.4049C65.0186 12.4677 65.1904 11.5167 65.3225 10.5529C65.4505 11.4883 65.615 12.4123 65.8148 13.3228C68.7932 27.0074 79.5587 37.7734 93.2439 40.7321C94.1522 40.9315 95.0712 41.0956 96.001 41.2235C95.035 41.3557 94.0817 41.5278 93.1424 41.7399C79.4975 44.7391 68.7931 55.505 65.8149 69.1484C65.6148 70.0598 65.4503 70.9821 65.3222 71.9151C65.1901 70.9534 65.0184 70.0033 64.8071 69.0671C61.8082 55.463 51.0831 44.7382 37.4789 41.7397Z" stroke="white"/>
<path d="M4.08094 18.5424L4.0797 18.5421C4.03029 18.5313 3.9808 18.5208 3.93124 18.5104C3.96727 18.5027 4.00327 18.4949 4.03924 18.487C11.2258 16.918 16.8961 11.2696 18.4763 4.09244C18.4875 4.04306 18.4984 3.99361 18.5091 3.94408C18.5166 3.97928 18.5242 4.01444 18.532 4.04956C20.1012 11.2578 25.7714 16.9284 32.9805 18.4872C33.0136 18.4944 33.0468 18.5016 33.08 18.5087C33.0288 18.5198 32.9776 18.5311 32.9266 18.5426C25.7387 20.1228 20.1009 25.7934 18.532 32.9797C18.5242 33.0148 18.5166 33.05 18.5091 33.0852C18.4984 33.0356 18.4874 32.9861 18.4763 32.9367C16.8962 25.7706 11.2472 20.1219 4.08094 18.5424Z" stroke="white"/>
<path d="M20.3982 70.9537C24.0939 69.8781 27.0108 66.9668 28.0853 63.273C29.1594 66.97 32.0702 69.8821 35.7669 70.9533C32.068 72.0275 29.1606 74.9448 28.0854 78.6408C27.0101 74.9449 24.0941 72.029 20.3982 70.9537ZM27.8964 79.3839C27.8921 79.4036 27.8878 79.4234 27.8836 79.4433L27.7805 79.4665L27.8964 79.3839ZM19.5686 70.7466L19.6264 71.0115L19.6267 71.013L19.655 71.1427C19.6551 71.1427 19.6552 71.1427 19.6553 71.1427C19.6554 71.1426 19.6555 71.1426 19.6556 71.1426L19.6269 71.012L19.6266 71.0105L19.5687 70.7466C19.6055 70.7543 19.6423 70.7621 19.679 70.7701L19.5686 70.7466Z" stroke="white"/>
</svg>
